<?xml version="1.0" encoding="UTF-8" standalone="no"?>
<svg
   xmlns:dc="http://purl.org/dc/elements/1.1/"
   xmlns:cc="http://creativecommons.org/ns#"
   xmlns:rdf="http://www.w3.org/1999/02/22-rdf-syntax-ns#"
   xmlns:svg="http://www.w3.org/2000/svg"
   xmlns="http://www.w3.org/2000/svg"
   xmlns:sodipodi="http://sodipodi.sourceforge.net/DTD/sodipodi-0.dtd"
   xmlns:inkscape="http://www.inkscape.org/namespaces/inkscape"
   width="74mm"
   height="105mm"
   viewBox="0 0 74 105"
   version="1.1"
   id="svg8"
   inkscape:version="1.0.2-2 (e86c870879, 2021-01-15)"
   sodipodi:docname="makerhub logo.svg">
  <defs
     id="defs2" />
  <sodipodi:namedview
     id="base"
     pagecolor="#ffffff"
     bordercolor="#666666"
     borderopacity="1.0"
     inkscape:pageopacity="0.0"
     inkscape:pageshadow="2"
     inkscape:zoom="0.98994949"
     inkscape:cx="184.1074"
     inkscape:cy="255.7154"
     inkscape:document-units="mm"
     inkscape:current-layer="layer1"
     inkscape:document-rotation="0"
     showgrid="false"
     inkscape:window-width="1920"
     inkscape:window-height="1001"
     inkscape:window-x="-9"
     inkscape:window-y="-9"
     inkscape:window-maximized="1" />
  <metadata
     id="metadata5">
    <rdf:RDF>
      <cc:Work
         rdf:about="">
        <dc:format>image/svg+xml</dc:format>
        <dc:type
           rdf:resource="http://purl.org/dc/dcmitype/StillImage" />
        <dc:title></dc:title>
      </cc:Work>
    </rdf:RDF>
  </metadata>
  <g
     inkscape:label="Layer 1"
     inkscape:groupmode="layer"
     id="layer1">
    <g
       id="g980"
       transform="matrix(0.88857533,0,0,0.88857533,-73.521056,133.0388)">
      <path
         style="fill:#b3b3b3;stroke-width:0.809648"
         d="m 105.78596,-84.1773 c 0,-4.08077 1.68642,-7.45803 4.32428,-8.65992 2.24391,-1.02239 2.96255,-0.17306 2.96255,3.5013 0,1.89573 -5.09492,8.43742 -6.57139,8.43742 -0.39349,0 -0.71544,-1.47547 -0.71544,-3.2788 z m 31.71846,0.74253 c -2.88062,-2.81633 -3.80924,-5.36219 -3.0538,-8.37209 0.4571,-1.82125 0.69009,-1.91678 2.57743,-1.05685 1.1412,0.51997 2.5941,1.94939 3.22867,3.1765 1.23063,2.37978 1.59363,8.78871 0.4978,8.78871 -0.36077,0 -1.82332,-1.14132 -3.2501,-2.53627 z m -49.49083,-26.70102 -2.79388,-1.70321 1.98424,-1.09884 c 3.02044,-1.67267 8.35177,-1.44 10.59825,0.46254 1.87574,1.58854 1.88208,1.64142 0.33978,2.83376 -2.23109,1.72483 -6.85871,1.49901 -10.12839,-0.49425 z m 61.04086,0.49425 c -1.5423,-1.19234 -1.53596,-1.24522 0.33977,-2.83376 2.24649,-1.90254 7.57782,-2.13521 10.59826,-0.46254 l 1.98424,1.09884 -2.79389,1.70321 c -3.26966,1.99326 -7.89729,2.21908 -10.12838,0.49425 z m -38.00577,-21.46184 c -2.78844,-1.05353 -4.62898,-3.83752 -5.05894,-7.65208 -0.49559,-4.39688 0.27544,-4.6278 4.13553,-1.2386 3.00371,2.63729 4.10721,5.41258 3.14858,7.91861 -0.45164,1.18067 -1.0181,1.42813 -2.22517,0.97207 z m 23.07496,-2.52928 c 0,-2.66598 0.52447,-3.81794 2.7528,-6.04627 3.46242,-3.46242 4.53403,-3.47158 4.53403,-0.0388 0,3.19032 -2.8744,7.77472 -5.46513,8.71637 -1.69913,0.61758 -1.8217,0.44053 -1.8217,-2.63134 z"
         id="path897-1"
         sodipodi:nodetypes="sssssssssssscssssssscsssssssssssss" />
      <path
         style="fill:#b7c4c8;stroke-width:0.809648"
         d="m 91.417335,-92.237936 c 2.39148,-6.378 6.94202,-10.188074 12.168065,-10.188074 3.08965,0 3.24725,0.25442 2.29467,3.704374 -1.31367,4.75772 -7.410345,8.69046 -13.495925,8.70571 -1.62845,0.004 -1.7214,-0.20955 -0.96681,-2.22201 z m 59.592635,1.0535 c -4.81109,-1.71585 -7.04026,-4.10817 -8.14873,-8.74516 -0.51985,-2.174684 -0.44848,-2.226534 3.06447,-2.226534 2.70121,0 4.2258,0.52932 6.1233,2.12597 2.38676,2.008334 5.69414,7.338604 5.69414,9.176844 0,1.14735 -3.00159,0.99973 -6.73318,-0.33112 z m -48.02666,-23.050504 c -3.327405,-2.02895 -6.315845,-6.07173 -7.829155,-10.59132 -0.67096,-2.00388 -1.11138,-3.75609 -0.97871,-3.89379 0.13268,-0.13771 2.31343,0.29075 4.84613,0.95213 7.883525,2.05868 11.800165,5.69131 12.992315,12.05019 l 0.56921,3.03618 -3.53111,-0.003 c -2.04661,-0.002 -4.59791,-0.65357 -6.06868,-1.5504 z m 33.71353,0.54133 c 0.0244,-5.45386 5.39324,-11.98108 11.08224,-13.47318 7.96125,-2.08804 7.54199,-2.11523 6.77826,0.43952 -1.9181,6.41618 -4.96859,10.76778 -9.01513,12.86033 -2.85478,1.47627 -8.85172,1.59378 -8.84537,0.17333 z m -14.01699,-5.29234 c -2.51276,-2.77657 -3.94067,-7.46554 -3.35079,-11.00338 0.63621,-3.81572 4.04943,-11.02989 5.21855,-11.02989 1.16911,0 4.58232,7.21417 5.21853,11.02989 0.38611,2.31574 0.15867,4.29061 -0.74255,6.44755 -1.31147,3.13877 -3.44684,6.00235 -4.47598,6.00235 -0.30727,0 -1.14777,-0.65094 -1.86776,-1.44652 z"
         id="path897-4"
         sodipodi:nodetypes="ssssssssssssssssccssssssssssssss" />
      <path
         style="fill:#6f8a91;stroke-width:0.809648"
         d="m 121.60327,-65.629301 0.25334,-8.90612 c 0.39619,-13.92852 -0.312,-18.576119 -3.35948,-22.047009 -2.11411,-2.40784 -2.5614,-3.59556 -2.5614,-6.80158 0,-2.47344 0.46832,-4.35263 1.28934,-5.17365 1.17935,-1.17935 1.40984,-0.97383 2.70185,2.40926 1.76458,4.62049 3.84407,5.92207 6.58853,4.12383 2.11543,-1.38608 2.42681,-3.31405 1.2167,-7.53346 -0.98804,-3.44507 0.13481,-3.40626 3.66786,0.12679 3.8723,3.8723 3.84629,7.92988 -0.081,12.6305 l -2.83377,3.3918 v 13.935969 13.93596 z"
         id="path899-0"
         sodipodi:nodetypes="ccsssssssccccc" />
      <text
         xml:space="preserve"
         style="font-style:normal;font-variant:normal;font-weight:bold;font-stretch:normal;font-size:14.1111px;line-height:1.55;font-family:Arial;-inkscape-font-specification:'Arial, Bold';font-variant-ligatures:normal;font-variant-caps:normal;font-variant-numeric:normal;font-variant-east-asian:normal;stroke-width:0.907892"
         x="90.278069"
         y="-52.881283"
         id="text973"><tspan
           sodipodi:role="line"
           id="tspan971"
           x="90.278069"
           y="-52.881283"
           style="font-style:normal;font-variant:normal;font-weight:bold;font-stretch:normal;font-size:14.1111px;font-family:Arial;-inkscape-font-specification:'Arial, Bold';font-variant-ligatures:normal;font-variant-caps:normal;font-variant-numeric:normal;font-variant-east-asian:normal;stroke-width:0.907892">Maker Hub</tspan></text>
    </g>
  </g>
</svg>
